<svg width="22" height="20" viewBox="0 0 22 20" fill="none" xmlns="http://www.w3.org/2000/svg">
<path d="M10.7751 10.5333C10.7751 10.0371 10.8417 9.55641 10.9664 9.09963C10.9931 8.58179 10.9645 7.8971 10.6298 7.45314C10.2201 6.90978 9.5043 6.84515 8.92094 6.81134C8.80788 6.82608 8.69785 6.83619 8.60771 6.83619C6.71566 6.83619 5.18186 5.30586 5.18186 3.4181C5.18186 1.53033 6.71566 0 8.60771 0C10.4998 0 12.0336 1.53033 12.0336 3.4181C12.0336 3.46362 12.0336 3.49429 12.0238 3.60706C12.0843 4.04887 12.2125 4.67113 12.6282 5.05852C13.1375 5.53309 13.9837 5.42022 14.6268 5.33072C15.1333 5.17569 15.6711 5.09227 16.2285 5.09227C19.2403 5.09227 21.6819 7.52831 21.6819 10.5333C21.6819 13.5383 19.2403 15.9744 16.2285 15.9744C13.2167 15.9744 10.7751 13.5383 10.7751 10.5333Z" fill="white"/>
<path d="M4.34035 15.0649C6.36086 15.0649 7.99882 13.3787 7.99882 11.2987C7.99882 9.21867 6.36086 7.53247 4.34035 7.53247C2.31984 7.53247 0.681885 9.21867 0.681885 11.2987C0.681885 13.3787 2.31984 15.0649 4.34035 15.0649Z" fill="white"/>
<path d="M12.1799 17.5325C12.1799 18.8952 11.01 20 9.56673 20C8.1235 20 6.95354 18.8952 6.95354 17.5325C6.95354 16.1697 8.1235 15.0649 9.56673 15.0649C11.01 15.0649 12.1799 16.1697 12.1799 17.5325Z" fill="white"/>
</svg>
